# xmcd
#
# Track frame offsets: 
#        150
#        18581
#        36507
#        55386
#        72077
#        89179
#        104971
#        121457
#        137374
#        157000
#        172407
#
# Disc length: 2554 seconds
#
# Revision: 2
# Processed by: cddbd v1.5.2PL0 Copyright (c) Steve Scherf et al.
# Submitted via: ExactAudioCopy v0.99pb5
#
DISCID=ad09f80b
DTITLE=Keola Beamer and Raiatea - Keola Beamer and Raiatea
DYEAR=2010
DGENRE=hawaiian
TTITLE0=INA
TTITLE1=WHERE I HOLD YOU
TTITLE2=OUR TIME FOR LETTING GO
TTITLE3=YOU SOMEBODY
TTITLE4=HILO HONAKAHI
TTITLE5=I KILOHI AKU AU
TTITLE6=KA MAKANI KA'ILI ALOHA
TTITLE7=KE KULU O KE AU
TTITLE8=KE ALI'I HULU MAMO
TTITLE9=DAYS OF MY YOUTH
TTITLE10=KIMO HULA
EXTD=
EXTT0=
EXTT1=
EXTT2=
EXTT3=
EXTT4=
EXTT5=
EXTT6=
EXTT7=
EXTT8=
EXTT9=
EXTT10=
PLAYORDER=
